<?xml version="1.0" encoding="UTF-8"?>
<svg version="1.1" xmlns="http://www.w3.org/2000/svg" width="293" height="273">
<path d="M0 0 C96.69 0 193.38 0 293 0 C293 90.09 293 180.18 293 273 C196.31 273 99.62 273 0 273 C0 182.91 0 92.82 0 0 Z " fill="#ECE8E8" transform="translate(0,0)"/>
<path d="M0 0 C0 0.66 0 1.32 0 2 C-0.59167969 2.14695312 -1.18335938 2.29390625 -1.79296875 2.4453125 C-2.58316406 2.66960938 -3.37335938 2.89390625 -4.1875 3.125 C-4.96480469 3.33382813 -5.74210937 3.54265625 -6.54296875 3.7578125 C-9.94377333 5.47713819 -12.16900965 7.70197626 -14 11 C-14.68737185 13.80249454 -14.78908626 16.4977113 -14.8125 19.375 C-14.83763672 20.11105469 -14.86277344 20.84710938 -14.88867188 21.60546875 C-14.94703593 23.40308149 -14.97650538 25.2015935 -15 27 C-14.01 27 -13.02 27 -12 27 C-12 26.34 -12 25.68 -12 25 C-9.76004355 23.27490804 -7.51915672 21.65445873 -5.1875 20.0625 C-3.90831312 19.18105427 -2.630908 18.29701608 -1.35546875 17.41015625 C-0.49924927 16.82439819 -0.49924927 16.82439819 0.37426758 16.22680664 C2.06285956 15.01860909 2.06285956 15.01860909 3.56079102 13.38525391 C5.64895535 11.37537359 7.26828232 11.43051255 10.125 11.3125 C16.21980557 11.4342338 19.17289187 13.90625861 23.41796875 18.0546875 C25 20 25 20 25 22 C22 22 22 22 19.4375 19.625 C18.633125 18.75875 17.82875 17.8925 17 17 C15.03572825 14.63315645 15.03572825 14.63315645 11.375 14.5 C5.20894723 14.61251921 1.15254684 18.84745316 -3 23 C5.73705455 23.8021706 5.73705455 23.8021706 14.5 23.9375 C18.00992792 24.00017728 19.86190486 24.5516484 23 26 C24.2375 26.309375 25.475 26.61875 26.75 26.9375 C27.8225 27.288125 28.895 27.63875 30 28 C30.495 29.485 30.495 29.485 31 31 C26.40488962 30.44858675 22.37581809 29.45860603 18 28 C15.67305036 27.62468554 13.34023315 27.28082798 11 27 C11.63921965 29.47627099 11.63921965 29.47627099 13 32 C14.6476038 32.71247732 16.31763529 33.37400383 18 34 C20.4375 36.1875 20.4375 36.1875 23 39 C23.50917969 39.51691406 24.01835937 40.03382812 24.54296875 40.56640625 C31.71254571 48.19625235 32.46211599 56.42733295 32.25 66.5625 C32.24484375 67.55185547 32.2396875 68.54121094 32.234375 69.56054688 C32.20446292 72.37789134 32.12206589 75.18524328 32 78 C31.95069336 79.17224121 31.95069336 79.17224121 31.90039062 80.36816406 C31.64881136 83.58097926 31.33844254 85.59356678 29.25 88.1015625 C28.5075 88.60429688 27.765 89.10703125 27 89.625 C25.79150391 90.46611328 25.79150391 90.46611328 24.55859375 91.32421875 C23.71425781 91.87722656 22.86992187 92.43023437 22 93 C21.16597656 93.58394531 20.33195312 94.16789062 19.47265625 94.76953125 C13.35977752 99 13.35977752 99 11 99 C12.35714741 103.07144222 15.08324536 104.63701845 18.5390625 106.8515625 C19.02117187 107.23054688 19.50328125 107.60953125 20 108 C20 108.66 20 109.32 20 110 C20.75796875 110.22042969 21.5159375 110.44085938 22.296875 110.66796875 C25.71358589 112.35163698 26.52407803 113.95603597 28.25 117.3125 C28.75015625 118.25738281 29.2503125 119.20226562 29.765625 120.17578125 C32.79922346 127.11657773 32.18370111 134.43677187 32.1875 141.875 C32.19974609 143.12925781 32.21199219 144.38351563 32.22460938 145.67578125 C32.23435966 151.81845964 32.18167793 157.22243393 30 163 C29.34 163 28.68 163 28 163 C27.773125 163.86625 27.54625 164.7325 27.3125 165.625 C23.24191872 176.09220901 13.18701693 181.60389142 3.5 186.125 C2.42141724 186.59365479 2.42141724 186.59365479 1.32104492 187.07177734 C-2.64022909 188.83809525 -2.64022909 188.83809525 -5.05859375 192.26953125 C-4.98266469 195.80782534 -4.35581395 199.12930729 -3.5625 202.5625 C-2.69264707 206.44834954 -2 209.98307756 -2 214 C-1.44441406 214.06316406 -0.88882813 214.12632812 -0.31640625 214.19140625 C2.98447446 215.34365297 4.66704979 217.41920619 7.0625 219.9375 C9.65653369 222.64855777 11.87331281 224.91554187 15 227 C15 227.66 15 228.32 15 229 C10.58068871 228.58110793 8.25029216 225.55211494 5.375 222.5 C2.04275785 218.79727917 2.04275785 218.79727917 -2 216 C-1.34 219.3 -0.68 222.6 0 226 C-0.99 225.67 -1.98 225.34 -3 225 C-3.495 220.545 -3.495 220.545 -4 216 C-6.84838905 218.07855417 -8.81722855 219.69069447 -10.625 222.75 C-11.07875 223.4925 -11.5325 224.235 -12 225 C-12.99 225 -13.98 225 -15 225 C-13.63312778 221.01328937 -11.84804907 218.11505367 -9 215 C-8.34 215 -7.68 215 -7 215 C-7 213.68 -7 212.36 -7 211 C-6.34 211 -5.68 211 -5 211 C-6.32 204.73 -7.64 198.46 -9 192 C-10.4025 191.9175 -11.805 191.835 -13.25 191.75 C-22.01082481 190.88013087 -30.00122602 187.49946361 -38 184 C-39.32 183.67 -40.64 183.34 -42 183 C-42 185.97 -42 188.94 -42 192 C-40.35 192 -38.7 192 -37 192 C-37 192.66 -37 193.32 -37 194 C-38.32 194 -39.64 194 -41 194 C-40.26160754 195.44349674 -39.50873357 196.87959051 -38.75 198.3125 C-38.12351562 199.51326172 -38.12351562 199.51326172 -37.484375 200.73828125 C-36.11559138 203.10830912 -36.11559138 203.10830912 -33.828125 204.60546875 C-33.22484375 205.06566406 -32.6215625 205.52585938 -32 206 C-32 206.99 -32 207.98 -32 209 C-35.00343637 208.67440623 -35.90288795 208.11191572 -37.921875 205.78515625 C-38.52515625 204.88667969 -39.1284375 203.98820313 -39.75 203.0625 C-40.36359375 202.16660156 -40.9771875 201.27070313 -41.609375 200.34765625 C-43 198 -43 198 -43 196 C-46.68006822 199.38168431 -48.9785845 202.42521756 -51 207 C-51.99 207 -52.98 207 -54 207 C-53.38801624 203.56049636 -52.07941153 201.48435515 -49.9375 198.75 C-49.38964844 198.04359375 -48.84179688 197.3371875 -48.27734375 196.609375 C-47.64505859 195.81273437 -47.64505859 195.81273437 -47 195 C-48.0725 195.165 -49.145 195.33 -50.25 195.5 C-55.82258642 196.21160726 -61.39263574 196.08411046 -67 196 C-67 195.34 -67 194.68 -67 194 C-65.98679687 193.86722656 -64.97359375 193.73445312 -63.9296875 193.59765625 C-62.57811796 193.41932416 -61.22655586 193.24093575 -59.875 193.0625 C-59.20984375 192.97548828 -58.5446875 192.88847656 -57.859375 192.79882812 C-53.89169812 192.27369442 -49.94373002 191.68185986 -46 191 C-44.82717304 186.96792822 -44.58645702 183.99237229 -46 180 C-49.65631479 176.70730317 -54.23437183 174.68034141 -58.56640625 172.421875 C-64.23835464 169.45216804 -68.50907974 165.55292508 -73 161 C-73.73347656 160.46117187 -74.46695313 159.92234375 -75.22265625 159.3671875 C-78.08402374 155.55622332 -77.67807358 151.64254138 -77.625 147 C-77.61879639 146.03046387 -77.61259277 145.06092773 -77.60620117 144.06201172 C-77.16686343 128.81761096 -72.58953035 114.04044176 -62.3125 102.5625 C-61.73113281 101.90378906 -61.14976563 101.24507813 -60.55078125 100.56640625 C-58.02542437 98.01560496 -56.0046352 97.80984283 -52.53515625 97.5 C-51.65279297 97.4175 -50.77042969 97.335 -49.86132812 97.25 C-48.93771484 97.1675 -48.01410156 97.085 -47.0625 97 C-45.24059153 96.83657724 -43.41895891 96.67004139 -41.59765625 96.5 C-40.38348022 96.39171875 -40.38348022 96.39171875 -39.14477539 96.28125 C-36.81944963 96.04548106 -36.81944963 96.04548106 -34 95 C-34.94875 94.46375 -35.8975 93.9275 -36.875 93.375 C-37.50921875 93.00890625 -38.1434375 92.6428125 -38.796875 92.265625 C-40.36200159 91.36650973 -41.93592226 90.48262683 -43.515625 89.609375 C-53.2261247 84.08543804 -53.2261247 84.08543804 -56 79 C-57.40105879 69.9120511 -56.25595396 59.06040553 -50.85986328 51.37646484 C-47.85333734 47.62313102 -44.48331824 44.30817934 -41 41 C-40.30390625 40.3090625 -39.6078125 39.618125 -38.890625 38.90625 C-33.67187623 33.98941232 -26.52293553 28.2557798 -19.16796875 27.83984375 C-18.45253906 27.89269531 -17.73710937 27.94554688 -17 28 C-17.04640625 26.77023438 -17.0928125 25.54046875 -17.140625 24.2734375 C-17.17816036 22.6406494 -17.21455862 21.00783489 -17.25 19.375 C-17.30027344 18.16263672 -17.30027344 18.16263672 -17.3515625 16.92578125 C-17.44091403 11.43066218 -16.68352406 8.34897822 -13 4 C-8.61449888 0.82051169 -5.3612275 0 0 0 Z " fill="#EAE6E6" transform="translate(166,21)"/>
<path d="M0 0 C0 0.66 0 1.32 0 2 C-0.59167969 2.14695312 -1.18335938 2.29390625 -1.79296875 2.4453125 C-2.58316406 2.66960938 -3.37335938 2.89390625 -4.1875 3.125 C-4.96480469 3.33382813 -5.74210937 3.54265625 -6.54296875 3.7578125 C-9.94377333 5.47713819 -12.16900965 7.70197626 -14 11 C-14.68737185 13.80249454 -14.78908626 16.4977113 -14.8125 19.375 C-14.83763672 20.11105469 -14.86277344 20.84710938 -14.88867188 21.60546875 C-14.94703593 23.40308149 -14.97650538 25.2015935 -15 27 C-14.01 27 -13.02 27 -12 27 C-12 26.34 -12 25.68 -12 25 C-9.76004355 23.27490804 -7.51915672 21.65445873 -5.1875 20.0625 C-3.90831312 19.18105427 -2.630908 18.29701608 -1.35546875 17.41015625 C-0.49924927 16.82439819 -0.49924927 16.82439819 0.37426758 16.22680664 C2.06285956 15.01860909 2.06285956 15.01860909 3.56079102 13.38525391 C5.64895535 11.37537359 7.26828232 11.43051255 10.125 11.3125 C16.21980557 11.4342338 19.17289187 13.90625861 23.41796875 18.0546875 C25 20 25 20 25 22 C22 22 22 22 19.4375 19.625 C18.633125 18.75875 17.82875 17.8925 17 17 C15.03572825 14.63315645 15.03572825 14.63315645 11.375 14.5 C5.20894723 14.61251921 1.15254684 18.84745316 -3 23 C5.73705455 23.8021706 5.73705455 23.8021706 14.5 23.9375 C18.00992792 24.00017728 19.86190486 24.5516484 23 26 C24.2375 26.309375 25.475 26.61875 26.75 26.9375 C27.8225 27.288125 28.895 27.63875 30 28 C30.495 29.485 30.495 29.485 31 31 C26.40488962 30.44858675 22.37581809 29.45860603 18 28 C15.67305036 27.62468554 13.34023315 27.28082798 11 27 C11.63921965 29.47627099 11.63921965 29.47627099 13 32 C14.6476038 32.71247732 16.31763529 33.37400383 18 34 C20.4375 36.1875 20.4375 36.1875 23 39 C23.50917969 39.51691406 24.01835937 40.03382812 24.54296875 40.56640625 C31.71254571 48.19625235 32.46211599 56.42733295 32.25 66.5625 C32.24484375 67.55185547 32.2396875 68.54121094 32.234375 69.56054688 C32.20446292 72.37789134 32.12206589 75.18524328 32 78 C31.95069336 79.17224121 31.95069336 79.17224121 31.90039062 80.36816406 C31.64881136 83.58097926 31.33844254 85.59356678 29.25 88.1015625 C28.5075 88.60429688 27.765 89.10703125 27 89.625 C25.79150391 90.46611328 25.79150391 90.46611328 24.55859375 91.32421875 C23.71425781 91.87722656 22.86992187 92.43023437 22 93 C21.16597656 93.58394531 20.33195312 94.16789062 19.47265625 94.76953125 C13.35977752 99 13.35977752 99 11 99 C12.35714741 103.07144222 15.08324536 104.63701845 18.5390625 106.8515625 C19.02117187 107.23054688 19.50328125 107.60953125 20 108 C20 108.66 20 109.32 20 110 C20.75796875 110.22042969 21.5159375 110.44085938 22.296875 110.66796875 C25.71358589 112.35163698 26.52407803 113.95603597 28.25 117.3125 C28.75015625 118.25738281 29.2503125 119.20226562 29.765625 120.17578125 C32.79922346 127.11657773 32.18370111 134.43677187 32.1875 141.875 C32.19974609 143.12925781 32.21199219 144.38351563 32.22460938 145.67578125 C32.23435966 151.81845964 32.18167793 157.22243393 30 163 C29.34 163 28.68 163 28 163 C27.773125 163.86625 27.54625 164.7325 27.3125 165.625 C23.24191872 176.09220901 13.18701693 181.60389142 3.5 186.125 C2.42141724 186.59365479 2.42141724 186.59365479 1.32104492 187.07177734 C-2.64022909 188.83809525 -2.64022909 188.83809525 -5.05859375 192.26953125 C-4.98266469 195.80782534 -4.35581395 199.12930729 -3.5625 202.5625 C-2.69264707 206.44834954 -2 209.98307756 -2 214 C-1.44441406 214.06316406 -0.88882813 214.12632812 -0.31640625 214.19140625 C2.98447446 215.34365297 4.66704979 217.41920619 7.0625 219.9375 C9.65653369 222.64855777 11.87331281 224.91554187 15 227 C15 227.66 15 228.32 15 229 C10.58068871 228.58110793 8.25029216 225.55211494 5.375 222.5 C2.04275785 218.79727917 2.04275785 218.79727917 -2 216 C-1.34 219.3 -0.68 222.6 0 226 C-0.99 225.67 -1.98 225.34 -3 225 C-3.495 220.545 -3.495 220.545 -4 216 C-6.84838905 218.07855417 -8.81722855 219.69069447 -10.625 222.75 C-11.07875 223.4925 -11.5325 224.235 -12 225 C-12.99 225 -13.98 225 -15 225 C-13.63312778 221.01328937 -11.84804907 218.11505367 -9 215 C-8.34 215 -7.68 215 -7 215 C-7 213.68 -7 212.36 -7 211 C-6.34 211 -5.68 211 -5 211 C-6.32 204.73 -7.64 198.46 -9 192 C-10.4025 191.9175 -11.805 191.835 -13.25 191.75 C-22.01082481 190.88013087 -30.00122602 187.49946361 -38 184 C-39.32 183.67 -40.64 183.34 -42 183 C-42 185.97 -42 188.94 -42 192 C-40.35 192 -38.7 192 -37 192 C-37 192.66 -37 193.32 -37 194 C-38.32 194 -39.64 194 -41 194 C-40.26160754 195.44349674 -39.50873357 196.87959051 -38.75 198.3125 C-38.12351562 199.51326172 -38.12351562 199.51326172 -37.484375 200.73828125 C-36.11559138 203.10830912 -36.11559138 203.10830912 -33.828125 204.60546875 C-33.22484375 205.06566406 -32.6215625 205.52585938 -32 206 C-32 206.99 -32 207.98 -32 209 C-35.00343637 208.67440623 -35.90288795 208.11191572 -37.921875 205.78515625 C-38.52515625 204.88667969 -39.1284375 203.98820313 -39.75 203.0625 C-40.36359375 202.16660156 -40.9771875 201.27070313 -41.609375 200.34765625 C-43 198 -43 198 -43 196 C-46.68006822 199.38168431 -48.9785845 202.42521756 -51 207 C-51.99 207 -52.98 207 -54 207 C-53.38801624 203.56049636 -52.07941153 201.48435515 -49.9375 198.75 C-49.38964844 198.04359375 -48.84179688 197.3371875 -48.27734375 196.609375 C-47.64505859 195.81273437 -47.64505859 195.81273437 -47 195 C-48.0725 195.165 -49.145 195.33 -50.25 195.5 C-55.82258642 196.21160726 -61.39263574 196.08411046 -67 196 C-67 195.34 -67 194.68 -67 194 C-65.98679687 193.86722656 -64.97359375 193.73445312 -63.9296875 193.59765625 C-62.57811796 193.41932416 -61.22655586 193.24093575 -59.875 193.0625 C-59.20984375 192.97548828 -58.5446875 192.88847656 -57.859375 192.79882812 C-53.89169812 192.27369442 -49.94373002 191.68185986 -46 191 C-44.82717304 186.96792822 -44.58645702 183.99237229 -46 180 C-49.65631479 176.70730317 -54.23437183 174.68034141 -58.56640625 172.421875 C-64.23835464 169.45216804 -68.50907974 165.55292508 -73 161 C-73.73347656 160.46117187 -74.46695313 159.92234375 -75.22265625 159.3671875 C-78.08402374 155.55622332 -77.67807358 151.64254138 -77.625 147 C-77.61879639 146.03046387 -77.61259277 145.06092773 -77.60620117 144.06201172 C-77.16686343 128.81761096 -72.58953035 114.04044176 -62.3125 102.5625 C-61.73113281 101.90378906 -61.14976563 101.24507813 -60.55078125 100.56640625 C-58.02542437 98.01560496 -56.0046352 97.80984283 -52.53515625 97.5 C-51.65279297 97.4175 -50.77042969 97.335 -49.86132812 97.25 C-48.93771484 97.1675 -48.01410156 97.085 -47.0625 97 C-45.24059153 96.83657724 -43.41895891 96.67004139 -41.59765625 96.5 C-40.38348022 96.39171875 -40.38348022 96.39171875 -39.14477539 96.28125 C-36.81944963 96.04548106 -36.81944963 96.04548106 -34 95 C-34.94875 94.46375 -35.8975 93.9275 -36.875 93.375 C-37.50921875 93.00890625 -38.1434375 92.6428125 -38.796875 92.265625 C-40.36200159 91.36650973 -41.93592226 90.48262683 -43.515625 89.609375 C-53.2261247 84.08543804 -53.2261247 84.08543804 -56 79 C-57.40105879 69.9120511 -56.25595396 59.06040553 -50.85986328 51.37646484 C-47.85333734 47.62313102 -44.48331824 44.30817934 -41 41 C-40.30390625 40.3090625 -39.6078125 39.618125 -38.890625 38.90625 C-33.67187623 33.98941232 -26.52293553 28.2557798 -19.16796875 27.83984375 C-18.45253906 27.89269531 -17.73710937 27.94554688 -17 28 C-17.04640625 26.77023438 -17.0928125 25.54046875 -17.140625 24.2734375 C-17.17816036 22.6406494 -17.21455862 21.00783489 -17.25 19.375 C-17.30027344 18.16263672 -17.30027344 18.16263672 -17.3515625 16.92578125 C-17.44091403 11.43066218 -16.68352406 8.34897822 -13 4 C-8.61449888 0.82051169 -5.3612275 0 0 0 Z M-41.09375 98.5078125 C-44.18465098 99.03127154 -47.18217514 99.18077841 -50.3125 99.3125 C-54.55871916 99.65219753 -57.57473141 100.09487214 -60.703125 103.296875 C-71.45863202 117.42157698 -76.02344973 135.09460246 -75.59765625 152.71875 C-74.57242904 158.34744842 -71.52060292 160.80727884 -67 164 C-66.12472656 164.6703125 -65.24945313 165.340625 -64.34765625 166.03125 C-59.64886745 169.81496568 -59.64886745 169.81496568 -54 171 C-54 171.66 -54 172.32 -54 173 C-39.56152781 182.06820847 -22.59654639 191.27798521 -5 188 C-1.85548945 186.13460367 -1.85548945 186.13460367 1 184 C2.65443345 183.30352877 4.32079604 182.63442594 6 182 C15.32697261 177.1565721 22.33325615 171.52015746 27 162 C27 161.34 27 160.68 27 160 C27.66 160 28.32 160 29 160 C30.37939058 153.965253 30.26286935 147.97662621 30.3125 141.8125 C30.34150391 140.63107422 30.37050781 139.44964844 30.40039062 138.23242188 C30.46578649 129.15245781 29.08158251 121.63553689 23.375 114.375 C22.59125 113.59125 21.8075 112.8075 21 112 C20.34 112 19.68 112 19 112 C18.505 110.515 18.505 110.515 18 109 C15.94595981 107.14123468 15.94595981 107.14123468 13.5 105.375 C9 102 9 102 8 101 C5.64288768 100.83618524 3.29757532 100.71920526 0.9375 100.625 C-4.97807909 100.33661468 -10.63715922 99.62757946 -16.4375 98.4375 C-25.28374061 96.65787692 -32.2772279 96.69993016 -41.09375 98.5078125 Z " fill="#E8E5E4" transform="translate(166,21)"/>
<path d="M0 0 C0 0.66 0 1.32 0 2 C-0.59167969 2.14695312 -1.18335938 2.29390625 -1.79296875 2.4453125 C-2.58316406 2.66960938 -3.37335938 2.89390625 -4.1875 3.125 C-4.96480469 3.33382813 -5.74210937 3.54265625 -6.54296875 3.7578125 C-9.94377333 5.47713819 -12.16900965 7.70197626 -14 11 C-14.68737185 13.80249454 -14.78908626 16.4977113 -14.8125 19.375 C-14.83763672 20.11105469 -14.86277344 20.84710938 -14.88867188 21.60546875 C-14.94703593 23.40308149 -14.97650538 25.2015935 -15 27 C-14.01 27 -13.02 27 -12 27 C-12 26.34 -12 25.68 -12 25 C-9.76004355 23.27490804 -7.51915672 21.65445873 -5.1875 20.0625 C-3.90831312 19.18105427 -2.630908 18.29701608 -1.35546875 17.41015625 C-0.49924927 16.82439819 -0.49924927 16.82439819 0.37426758 16.22680664 C2.06285956 15.01860909 2.06285956 15.01860909 3.56079102 13.38525391 C5.64895535 11.37537359 7.26828232 11.43051255 10.125 11.3125 C16.21980557 11.4342338 19.17289187 13.90625861 23.41796875 18.0546875 C25 20 25 20 25 22 C22 22 22 22 19.4375 19.625 C18.633125 18.75875 17.82875 17.8925 17 17 C15.03572825 14.63315645 15.03572825 14.63315645 11.375 14.5 C5.20894723 14.61251921 1.15254684 18.84745316 -3 23 C5.73705455 23.8021706 5.73705455 23.8021706 14.5 23.9375 C18.00992792 24.00017728 19.86190486 24.5516484 23 26 C24.2375 26.309375 25.475 26.61875 26.75 26.9375 C27.8225 27.288125 28.895 27.63875 30 28 C30.495 29.485 30.495 29.485 31 31 C26.40488962 30.44858675 22.37581809 29.45860603 18 28 C15.67305036 27.62468554 13.34023315 27.28082798 11 27 C11.63921965 29.47627099 11.63921965 29.47627099 13 32 C14.6476038 32.71247732 16.31763529 33.37400383 18 34 C20.4375 36.1875 20.4375 36.1875 23 39 C23.50917969 39.51691406 24.01835937 40.03382812 24.54296875 40.56640625 C31.71254571 48.19625235 32.46211599 56.42733295 32.25 66.5625 C32.24484375 67.55185547 32.2396875 68.54121094 32.234375 69.56054688 C32.20446292 72.37789134 32.12206589 75.18524328 32 78 C31.95069336 79.17224121 31.95069336 79.17224121 31.90039062 80.36816406 C31.64881136 83.58097926 31.33844254 85.59356678 29.25 88.1015625 C28.5075 88.60429688 27.765 89.10703125 27 89.625 C25.79150391 90.46611328 25.79150391 90.46611328 24.55859375 91.32421875 C23.71425781 91.87722656 22.86992187 92.43023437 22 93 C21.16597656 93.58394531 20.33195312 94.16789062 19.47265625 94.76953125 C13.35977752 99 13.35977752 99 11 99 C12.35714741 103.07144222 15.08324536 104.63701845 18.5390625 106.8515625 C19.02117187 107.23054688 19.50328125 107.60953125 20 108 C20 108.66 20 109.32 20 110 C20.75796875 110.22042969 21.5159375 110.44085938 22.296875 110.66796875 C25.71358589 112.35163698 26.52407803 113.95603597 28.25 117.3125 C28.75015625 118.25738281 29.2503125 119.20226562 29.765625 120.17578125 C32.79922346 127.11657773 32.18370111 134.43677187 32.1875 141.875 C32.19974609 143.12925781 32.21199219 144.38351563 32.22460938 145.67578125 C32.23435966 151.81845964 32.18167793 157.22243393 30 163 C29.34 163 28.68 163 28 163 C27.773125 163.86625 27.54625 164.7325 27.3125 165.625 C23.24191872 176.09220901 13.18701693 181.60389142 3.5 186.125 C2.42141724 186.59365479 2.42141724 186.59365479 1.32104492 187.07177734 C-2.64022909 188.83809525 -2.64022909 188.83809525 -5.05859375 192.26953125 C-4.98266469 195.80782534 -4.35581395 199.12930729 -3.5625 202.5625 C-2.69264707 206.44834954 -2 209.98307756 -2 214 C-1.44441406 214.06316406 -0.88882813 214.12632812 -0.31640625 214.19140625 C2.98447446 215.34365297 4.66704979 217.41920619 7.0625 219.9375 C9.65653369 222.64855777 11.87331281 224.91554187 15 227 C15 227.66 15 228.32 15 229 C10.58068871 228.58110793 8.25029216 225.55211494 5.375 222.5 C2.04275785 218.79727917 2.04275785 218.79727917 -2 216 C-1.34 219.3 -0.68 222.6 0 226 C-0.99 225.67 -1.98 225.34 -3 225 C-3.495 220.545 -3.495 220.545 -4 216 C-6.84838905 218.07855417 -8.81722855 219.69069447 -10.625 222.75 C-11.07875 223.4925 -11.5325 224.235 -12 225 C-12.99 225 -13.98 225 -15 225 C-13.63312778 221.01328937 -11.84804907 218.11505367 -9 215 C-8.34 215 -7.68 215 -7 215 C-7 213.68 -7 212.36 -7 211 C-6.34 211 -5.68 211 -5 211 C-6.32 204.73 -7.64 198.46 -9 192 C-10.4025 191.9175 -11.805 191.835 -13.25 191.75 C-22.01082481 190.88013087 -30.00122602 187.49946361 -38 184 C-39.32 183.67 -40.64 183.34 -42 183 C-42 185.97 -42 188.94 -42 192 C-40.35 192 -38.7 192 -37 192 C-37 192.66 -37 193.32 -37 194 C-38.32 194 -39.64 194 -41 194 C-40.26160754 195.44349674 -39.50873357 196.87959051 -38.75 198.3125 C-38.12351562 199.51326172 -38.12351562 199.51326172 -37.484375 200.73828125 C-36.11559138 203.10830912 -36.11559138 203.10830912 -33.828125 204.60546875 C-33.22484375 205.06566406 -32.6215625 205.52585938 -32 206 C-32 206.99 -32 207.98 -32 209 C-35.00343637 208.67440623 -35.90288795 208.11191572 -37.921875 205.78515625 C-38.52515625 204.88667969 -39.1284375 203.98820313 -39.75 203.0625 C-40.36359375 202.16660156 -40.9771875 201.27070313 -41.609375 200.34765625 C-43 198 -43 198 -43 196 C-46.68006822 199.38168431 -48.9785845 202.42521756 -51 207 C-51.99 207 -52.98 207 -54 207 C-53.38801624 203.56049636 -52.07941153 201.48435515 -49.9375 198.75 C-49.38964844 198.04359375 -48.84179688 197.3371875 -48.27734375 196.609375 C-47.64505859 195.81273437 -47.64505859 195.81273437 -47 195 C-48.0725 195.165 -49.145 195.33 -50.25 195.5 C-55.82258642 196.21160726 -61.39263574 196.08411046 -67 196 C-67 195.34 -67 194.68 -67 194 C-65.98679687 193.86722656 -64.97359375 193.73445312 -63.9296875 193.59765625 C-62.57811796 193.41932416 -61.22655586 193.24093575 -59.875 193.0625 C-59.20984375 192.97548828 -58.5446875 192.88847656 -57.859375 192.79882812 C-53.89169812 192.27369442 -49.94373002 191.68185986 -46 191 C-44.82717304 186.96792822 -44.58645702 183.99237229 -46 180 C-49.65631479 176.70730317 -54.23437183 174.68034141 -58.56640625 172.421875 C-64.23835464 169.45216804 -68.50907974 165.55292508 -73 161 C-73.73347656 160.46117187 -74.46695313 159.92234375 -75.22265625 159.3671875 C-78.08402374 155.55622332 -77.67807358 151.64254138 -77.625 147 C-77.61879639 146.03046387 -77.61259277 145.06092773 -77.60620117 144.06201172 C-77.16686343 128.81761096 -72.58953035 114.04044176 -62.3125 102.5625 C-61.73113281 101.90378906 -61.14976563 101.24507813 -60.55078125 100.56640625 C-58.02542437 98.01560496 -56.0046352 97.80984283 -52.53515625 97.5 C-51.65279297 97.4175 -50.77042969 97.335 -49.86132812 97.25 C-48.93771484 97.1675 -48.01410156 97.085 -47.0625 97 C-45.24059153 96.83657724 -43.41895891 96.67004139 -41.59765625 96.5 C-40.38348022 96.39171875 -40.38348022 96.39171875 -39.14477539 96.28125 C-36.81944963 96.04548106 -36.81944963 96.04548106 -34 95 C-34.94875 94.46375 -35.8975 93.9275 -36.875 93.375 C-37.50921875 93.00890625 -38.1434375 92.6428125 -38.796875 92.265625 C-40.36200159 91.36650973 -41.93592226 90.48262683 -43.515625 89.609375 C-53.2261247 84.08543804 -53.2261247 84.08543804 -56 79 C-57.40105879 69.9120511 -56.25595396 59.06040553 -50.85986328 51.37646484 C-47.85333734 47.62313102 -44.48331824 44.30817934 -41 41 C-40.30390625 40.3090625 -39.6078125 39.618125 -38.890625 38.90625 C-33.67187623 33.98941232 -26.52293553 28.2557798 -19.16796875 27.83984375 C-18.45253906 27.89269531 -17.73710937 27.94554688 -17 28 C-17.04640625 26.77023438 -17.0928125 25.54046875 -17.140625 24.2734375 C-17.17816036 22.6406494 -17.21455862 21.00783489 -17.25 19.375 C-17.30027344 18.16263672 -17.30027344 18.16263672 -17.3515625 16.92578125 C-17.44091403 11.43066218 -16.68352406 8.34897822 -13 4 C-8.61449888 0.82051169 -5.3612275 0 0 0 Z M-6 26 C-9.77304004 31.54165256 -10.54330269 35.34454208 -10 42 C-10.99 42 -11.98 42 -13 42 C-13.19916016 41.07767578 -13.19916016 41.07767578 -13.40234375 40.13671875 C-13.57894531 39.32847656 -13.75554687 38.52023438 -13.9375 37.6875 C-14.11152344 36.88699219 -14.28554687 36.08648437 -14.46484375 35.26171875 C-14.99886159 32.854599 -14.99886159 32.854599 -16 30 C-17.37691552 30.43143353 -18.75143619 30.87051164 -20.125 31.3125 C-21.27355469 31.67794922 -21.27355469 31.67794922 -22.4453125 32.05078125 C-28.41833082 34.27011374 -32.88047777 37.29712838 -37.625 41.4375 C-38.18445313 41.91509766 -38.74390625 42.39269531 -39.3203125 42.88476562 C-40.89621251 44.23951929 -42.45110778 45.61452181 -44 47 C-44.73605469 47.65097656 -45.47210938 48.30195312 -46.23046875 48.97265625 C-48.41667199 51.47737916 -49.46493817 53.91467046 -50.6875 57 C-51.10386719 58.03125 -51.52023438 59.0625 -51.94921875 60.125 C-54.13028076 66.09251539 -54.68019283 71.65153362 -54 78 C-52.47662048 81.00948974 -52.47662048 81.00948974 -50 83 C-48.95779297 83.93005859 -48.95779297 83.93005859 -47.89453125 84.87890625 C-34.0724799 95.00761594 -12.99435465 100.3748242 4 99 C4 98.01 4 97.02 4 96 C4.99 96 5.98 96 7 96 C7 96.66 7 97.32 7 98 C8.32 98 9.64 98 11 98 C11 97.34 11 96.68 11 96 C11.55429688 95.72929688 12.10859375 95.45859375 12.6796875 95.1796875 C15.20565205 93.8954429 17.66954127 92.53963742 20.125 91.125 C20.99382812 90.63257812 21.86265625 90.14015625 22.7578125 89.6328125 C25.12182196 87.91128645 25.96194255 86.69428396 27 84 C27.66 84 28.32 84 29 84 C31.06429138 71.63131199 32.72404175 56.56449717 25.984375 45.4921875 C21.66315868 40.0651481 16.96386702 34.53389141 10 33 C8.75 30.9375 8.75 30.9375 8 29 C2.46352267 29.13841193 -0.35212434 31.5622099 -4.36328125 35.015625 C-6.27966394 37.3390675 -6.64820553 39.04288708 -7 42 C-7.66 42 -8.32 42 -9 42 C-6.17647059 34.87394958 -6.17647059 34.87394958 -3 32 C-3 31.34 -3 30.68 -3 30 C-1.02 29.34 0.96 28.68 3 28 C3 27.34 3 26.68 3 26 C0.03 26 -2.94 26 -6 26 Z M-41.09375 98.5078125 C-44.18465098 99.03127154 -47.18217514 99.18077841 -50.3125 99.3125 C-54.55871916 99.65219753 -57.57473141 100.09487214 -60.703125 103.296875 C-71.45863202 117.42157698 -76.02344973 135.09460246 -75.59765625 152.71875 C-74.57242904 158.34744842 -71.52060292 160.80727884 -67 164 C-66.12472656 164.6703125 -65.24945313 165.340625 -64.34765625 166.03125 C-59.64886745 169.81496568 -59.64886745 169.81496568 -54 171 C-54 171.66 -54 172.32 -54 173 C-39.56152781 182.06820847 -22.59654639 191.27798521 -5 188 C-1.85548945 186.13460367 -1.85548945 186.13460367 1 184 C2.65443345 183.30352877 4.32079604 182.63442594 6 182 C15.32697261 177.1565721 22.33325615 171.52015746 27 162 C27 161.34 27 160.68 27 160 C27.66 160 28.32 160 29 160 C30.37939058 153.965253 30.26286935 147.97662621 30.3125 141.8125 C30.34150391 140.63107422 30.37050781 139.44964844 30.40039062 138.23242188 C30.46578649 129.15245781 29.08158251 121.63553689 23.375 114.375 C22.59125 113.59125 21.8075 112.8075 21 112 C20.34 112 19.68 112 19 112 C18.505 110.515 18.505 110.515 18 109 C15.94595981 107.14123468 15.94595981 107.14123468 13.5 105.375 C9 102 9 102 8 101 C5.64288768 100.83618524 3.29757532 100.71920526 0.9375 100.625 C-4.97807909 100.33661468 -10.63715922 99.62757946 -16.4375 98.4375 C-25.28374061 96.65787692 -32.2772279 96.69993016 -41.09375 98.5078125 Z " fill="#4E4B4C" transform="translate(166,21)"/>
<path d="M0 0 C0.33 0.66 0.66 1.32 1 2 C3.31 2 5.62 2 8 2 C8 2.99 8 3.98 8 5 C8.969375 5.144375 9.93875 5.28875 10.9375 5.4375 C14 6 14 6 15 7 C15.16796875 8.9609375 15.16796875 8.9609375 15.1875 11.375 C15.20167969 12.16648437 15.21585938 12.95796875 15.23046875 13.7734375 C15 16 15 16 13 19 C16.465 18.505 16.465 18.505 20 18 C19 21 19 21 15.83984375 22.82421875 C14.54399131 23.45553148 13.24293771 24.07625399 11.9375 24.6875 C11.27427734 25.00783203 10.61105469 25.32816406 9.92773438 25.65820312 C8.28949142 26.4478598 6.64528546 27.22512362 5 28 C6.04800781 27.7834375 7.09601563 27.566875 8.17578125 27.34375 C9.55465627 27.06234693 10.93356426 26.78110536 12.3125 26.5 C13.00279297 26.35691406 13.69308594 26.21382812 14.40429688 26.06640625 C17.32524773 25.47374956 20.01108122 25 23 25 C22.505 26.485 22.505 26.485 22 28 C15.34574301 29.14231412 8.70778622 30.22602467 2 31 C1.71125 31.94875 1.4225 32.8975 1.125 33.875 C0 37 0 37 -2 39 C-3.14926266 38.04578192 -4.29430541 37.08647955 -5.4375 36.125 C-6.07558594 35.59132812 -6.71367188 35.05765625 -7.37109375 34.5078125 C-9.38685114 32.64190758 -9.93987046 31.55003741 -10.23828125 28.8203125 C-10.50860558 19.00327098 -8.14840875 9.78798442 -2 2 C-1.34 1.34 -0.68 0.68 0 0 Z " fill="#E3E1E0" transform="translate(122,68)"/>
<path d="M0 0 C0 0.66 0 1.32 0 2 C-0.59167969 2.14695312 -1.18335938 2.29390625 -1.79296875 2.4453125 C-2.58316406 2.66960938 -3.37335938 2.89390625 -4.1875 3.125 C-4.96480469 3.33382813 -5.74210937 3.54265625 -6.54296875 3.7578125 C-9.94377333 5.47713819 -12.16900965 7.70197626 -14 11 C-14.68737185 13.80249454 -14.78908626 16.4977113 -14.8125 19.375 C-14.83763672 20.11105469 -14.86277344 20.84710938 -14.88867188 21.60546875 C-14.94703593 23.40308149 -14.97650538 25.2015935 -15 27 C-14.01 27 -13.02 27 -12 27 C-12 26.34 -12 25.68 -12 25 C-9.76004355 23.27490804 -7.51915672 21.65445873 -5.1875 20.0625 C-3.90831312 19.18105427 -2.630908 18.29701608 -1.35546875 17.41015625 C-0.78465576 17.01965088 -0.21384277 16.62914551 0.37426758 16.22680664 C2.06285956 15.01860909 2.06285956 15.01860909 3.56079102 13.38525391 C5.64895535 11.37537359 7.26828232 11.43051255 10.125 11.3125 C16.21980557 11.4342338 19.17289187 13.90625861 23.41796875 18.0546875 C25 20 25 20 25 22 C22 22 22 22 19.4375 19.625 C18.2309375 18.325625 18.2309375 18.325625 17 17 C15.03572825 14.63315645 15.03572825 14.63315645 11.375 14.5 C5.20894723 14.61251921 1.15254684 18.84745316 -3 23 C5.73705455 23.8021706 5.73705455 23.8021706 14.5 23.9375 C18.00992792 24.00017728 19.86190486 24.5516484 23 26 C24.2375 26.309375 25.475 26.61875 26.75 26.9375 C27.8225 27.288125 28.895 27.63875 30 28 C30.495 29.485 30.495 29.485 31 31 C26.40488962 30.44858675 22.37581809 29.45860603 18 28 C15.67305036 27.62468554 13.34023315 27.28082798 11 27 C11.63921965 29.47627099 11.63921965 29.47627099 13 32 C15.52372901 33.36078035 15.52372901 33.36078035 18 34 C17.01 34.66 16.02 35.32 15 36 C11.73539027 34.19587357 10.11070205 33.16605307 8 30 C2.84826878 30.25130396 0.16050996 32.00397103 -3.51953125 35.3671875 C-5.36452292 37.4020332 -6.2990094 39.35181327 -7 42 C-7.66 42 -8.32 42 -9 42 C-8.59579069 36.34106967 -6.79663015 33.97742206 -3 30 C0 28 0 28 3 28 C3 27.34 3 26.68 3 26 C-0.09997827 26.01299781 -2.99660204 26.19980516 -6 27 C-9.48730613 31.35913266 -9.65147958 36.59192455 -10 42 C-10.99 42 -11.98 42 -13 42 C-13.50559908 40.56445975 -14.0042749 39.1264798 -14.5 37.6875 C-14.7784375 36.88699219 -15.056875 36.08648437 -15.34375 35.26171875 C-16 33 -16 33 -16 30 C-16.66386719 30.33773437 -17.32773438 30.67546875 -18.01171875 31.0234375 C-18.89472656 31.46945313 -19.77773437 31.91546875 -20.6875 32.375 C-21.55761719 32.81585938 -22.42773438 33.25671875 -23.32421875 33.7109375 C-26 35 -26 35 -28.5625 35.96875 C-31.1568602 37.06636393 -33.09559262 38.39656374 -35.3125 40.125 C-36.00988281 40.66382813 -36.70726562 41.20265625 -37.42578125 41.7578125 C-37.94527344 42.16773438 -38.46476562 42.57765625 -39 43 C-39.66 42.34 -40.32 41.68 -41 41 C-35.19729607 35.38018932 -27.58538746 28.31586329 -19.16796875 27.83984375 C-18.45253906 27.89269531 -17.73710937 27.94554688 -17 28 C-17.04640625 26.77023438 -17.0928125 25.54046875 -17.140625 24.2734375 C-17.17816036 22.6406494 -17.21455862 21.00783489 -17.25 19.375 C-17.30027344 18.16263672 -17.30027344 18.16263672 -17.3515625 16.92578125 C-17.44091403 11.43066218 -16.68352406 8.34897822 -13 4 C-8.61449888 0.82051169 -5.3612275 0 0 0 Z " fill="#4D494B" transform="translate(166,21)"/>
<path d="M0 0 C2.85026332 0.30538536 4.05165508 1.04448076 6.25 2.9375 C8.7478812 7.30879211 8.77473703 11.07719176 8 16 C6.5 19.125 6.5 19.125 4 21 C0.29211611 21.70662541 -2.89884742 21.39528554 -6.4375 20.125 C-8 19 -8 19 -9 17 C-9.26186347 11.7627306 -8.97513861 7.93784652 -7 3 C-3.535 2.505 -3.535 2.505 0 2 C0 1.34 0 0.68 0 0 Z " fill="#E3DFDF" transform="translate(166,69)"/>
<path d="M0 0 C2.31 0 4.62 0 7 0 C7 0.66 7 1.32 7 2 C7.969375 2.144375 8.93875 2.28875 9.9375 2.4375 C13 3 13 3 14 4 C14.4375 7.3125 14.4375 7.3125 14 11 C9.85817114 14.49754437 6.20360543 16.15087878 0.8125 16.0625 C-1.0746875 16.0315625 -1.0746875 16.0315625 -3 16 C-3.37952295 9.80112515 -2.8352113 5.5522888 0 0 Z " fill="#555154" transform="translate(123,71)"/>
<path d="M0 0 C2.70126227 1.6634892 4.97291351 3.55482692 7 6 C7 6.66 7 7.32 7 8 C7.99 8.33 8.98 8.66 10 9 C9.67 9.99 9.34 10.98 9 12 C9.99 12.33 10.98 12.66 12 13 C7.24792013 12.07598447 7.24792013 12.07598447 5.25390625 11.46484375 C2.1994089 10.83488676 -0.69673164 10.94598885 -3.8125 11 C-8.68049793 11.04060895 -13.22254379 10.90999166 -18 10 C-18 9.01 -18 8.02 -18 7 C-15.25 5 -15.25 5 -12 3 C-11.38125 2.4225 -10.7625 1.845 -10.125 1.25 C-6.80734949 -0.70155912 -3.66462588 -0.86346472 0 0 Z " fill="#E2DFDF" transform="translate(181,35)"/>
<path d="M0 0 C0.99 0.33 1.98 0.66 3 1 C2.48050781 1.43828125 1.96101563 1.8765625 1.42578125 2.328125 C-5.92536255 9.01345356 -10.23693754 17.68550131 -11.2734375 27.62109375 C-11.58194548 33.75952603 -11.58194548 33.75952603 -8.6875 39 C-7.800625 39.66 -6.91375 40.32 -6 41 C-5.55035889 41.48960205 -5.10071777 41.9792041 -4.63745117 42.48364258 C-2.61390231 44.35754477 -0.65544705 45.19863123 1.88671875 46.26171875 C3.2934082 46.85629883 3.2934082 46.85629883 4.72851562 47.46289062 C5.70498047 47.86701172 6.68144531 48.27113281 7.6875 48.6875 C8.67556641 49.10322266 9.66363281 49.51894531 10.68164062 49.94726562 C13.11842741 50.97142239 15.55785486 51.98870265 18 53 C18 53.33 18 53.66 18 54 C15.69 54 13.38 54 11 54 C11 53.34 11 52.68 11 52 C10.12214844 51.89042969 9.24429688 51.78085938 8.33984375 51.66796875 C0.07918016 50.01583603 -7.01089103 44.72871293 -13 39 C-16.06886251 32.86227499 -14.25114281 23.74978521 -12.625 17.375 C-10.16136127 9.99307518 -5.54821154 5.28350679 0 0 Z " fill="#444041" transform="translate(124,63)"/>
<path d="M0 0 C0.33 0 0.66 0 1 0 C1.22753655 3.85328196 1.42856775 7.70751715 1.625 11.5625 C1.68945312 12.64853516 1.75390625 13.73457031 1.8203125 14.85351562 C2.10557825 20.71929255 2.07543098 25.47871987 0 31 C-0.66 31 -1.32 31 -2 31 C-2.226875 31.86625 -2.45375 32.7325 -2.6875 33.625 C-6.97795281 44.65759294 -18.30978283 50.676835 -28.4597168 55.56396484 C-35.1238606 58.4830735 -40.87996337 58.58498207 -48 57 C-48 56.67 -48 56.34 -48 56 C-47.13117188 55.97421875 -46.26234375 55.9484375 -45.3671875 55.921875 C-38.58982496 55.58831353 -34.2562438 55.33640114 -29 51 C-27.33775655 50.32237996 -25.67054065 49.6568989 -24 49 C-13.85770058 43.66363961 -8.13202276 38.21862939 -3 28 C-2.34 28 -1.68 28 -1 28 C-0.67 18.76 -0.34 9.52 0 0 Z " fill="#555153" transform="translate(196,153)"/>
<path d="M0 0 C4.00686868 1.33329602 6.30678368 2.92930656 9.125 6.0625 C10.11886719 7.13177734 10.11886719 7.13177734 11.1328125 8.22265625 C16.0562796 15.54605606 16.43029472 22.94779292 16.25 31.5625 C16.24484375 32.55185547 16.2396875 33.54121094 16.234375 34.56054688 C16.20446369 37.37781861 16.12055782 40.18525955 16 43 C15.97147949 43.77859375 15.94295898 44.5571875 15.91357422 45.359375 C15.66353748 48.75172295 15.30507119 50.65117358 13.0390625 53.2421875 C12.24242187 53.78101563 11.44578125 54.31984375 10.625 54.875 C9.43777344 55.70644531 9.43777344 55.70644531 8.2265625 56.5546875 C7.49179688 57.03164062 6.75703125 57.50859375 6 58 C5.01 58.66 4.02 59.32 3 60 C2.01 59.67 1.02 59.34 0 59 C2.5822544 56.28308817 5.38490664 54.27731006 8.4765625 52.18359375 C10.15050308 51.05894057 10.15050308 51.05894057 11 49 C11.66 49 12.32 49 13 49 C13.15062046 45.09004746 13.25825104 41.1812632 13.32958984 37.26904297 C13.37387882 35.2998504 13.45019904 33.33146051 13.52734375 31.36328125 C13.66549961 22.29104648 12.18655536 15.55190235 7 8 C4.78552348 5.72821416 2.53547669 3.92696228 0 2 C0 1.34 0 0.68 0 0 Z " fill="#4E4A4C" transform="translate(182,56)"/>
<path d="M0 0 C0.66 0 1.32 0 2 0 C3.45659977 1.61382948 4.84048951 3.29363216 6.1875 5 C6.991875 6.0003125 7.79625 7.000625 8.625 8.03125 C9.40875 9.0109375 10.1925 9.990625 11 11 C14.92728304 15.87743216 17.99778068 19.65767051 24 22 C24 22.66 24 23.32 24 24 C16.1902038 25.75321955 8.5887536 24.26852421 1 22 C-0.94921875 20.640625 -0.94921875 20.640625 -2 19 C-2 17.68 -2 16.36 -2 15 C-1.34 15 -0.68 15 0 15 C0 15.99 0 16.98 0 18 C1.72681437 18.50806447 3.45657979 19.00610467 5.1875 19.5 C6.15042969 19.7784375 7.11335938 20.056875 8.10546875 20.34375 C10.85345876 20.96677608 13.19598416 21.12302812 16 21 C15.34773438 20.28714844 14.69546875 19.57429688 14.0234375 18.83984375 C11.34102459 15.90026737 8.6693794 12.95141204 6 10 C5.34 9.27941406 4.68 8.55882812 4 7.81640625 C0 3.3452524 0 3.3452524 0 0 Z " fill="#4A4648" transform="translate(109,148)"/>
<path d="M0 0 C2.85026332 0.30538536 4.05165508 1.04448076 6.25 2.9375 C8.7478812 7.30879211 8.77473703 11.07719176 8 16 C6.5 19.125 6.5 19.125 4 21 C0.29211611 21.70662541 -2.89884742 21.39528554 -6.4375 20.125 C-8 19 -8 19 -9 17 C-9.26186347 11.7627306 -8.97513861 7.93784652 -7 3 C-3.535 2.505 -3.535 2.505 0 2 C0 1.34 0 0.68 0 0 Z M-6 6 C-7.33034463 9.5919305 -7.07279423 13.21470013 -7 17 C-3.90428591 18.83449724 -1.59379371 19.6450399 2 19 C4.62249703 16.10621018 5.20196877 13.60510271 5.3125 9.8125 C5.41230371 5.98098541 5.41230371 5.98098541 3 4 C-2.02999574 3.41355715 -2.02999574 3.41355715 -6 6 Z " fill="#454043" transform="translate(166,69)"/>
<path d="M0 0 C5.51222349 2.92111178 9.97343662 7.80181196 14.23828125 12.265625 C16.0853979 14.19302823 16.0853979 14.19302823 19 16 C19 16.66 19 17.32 19 18 C14.58068871 17.58110793 12.25029216 14.55211494 9.375 11.5 C6.04275785 7.79727917 6.04275785 7.79727917 2 5 C2.66 8.3 3.32 11.6 4 15 C3.01 14.67 2.02 14.34 1 14 C0.67 11.03 0.34 8.06 0 5 C-2.84838905 7.07855417 -4.81722855 8.69069447 -6.625 11.75 C-7.305625 12.86375 -7.305625 12.86375 -8 14 C-8.99 14 -9.98 14 -11 14 C-9.63312778 10.01328937 -7.84804907 7.11505367 -5 4 C-4.34 4 -3.68 4 -3 4 C-3 3.01 -3 2.02 -3 1 C-2.01 0.67 -1.02 0.34 0 0 Z " fill="#434042" transform="translate(162,232)"/>
<path d="M0 0 C0.66 0 1.32 0 2 0 C1.23588358 5.34881497 -0.47570366 8.75585653 -4.69921875 12.203125 C-5.68535156 12.87859375 -6.67148438 13.5540625 -7.6875 14.25 C-9.47157124 15.48103229 -11.24649479 16.72580606 -13 18 C-13 18.33 -13 18.66 -13 19 C-8.48382401 19.07654536 -4.40914783 19.10228696 0 18 C0 18.66 0 19.32 0 20 C-3.8415976 22.56780471 -7.8139175 22.22688882 -12.25 22.125 C-12.99507812 22.11597656 -13.74015625 22.10695312 -14.5078125 22.09765625 C-16.33868059 22.07418358 -18.16938238 22.03831525 -20 22 C-19.69808855 18.91913084 -19.08531691 18.07200404 -16.671875 16.03515625 C-15.70765625 15.38417969 -14.7434375 14.73320312 -13.75 14.0625 C-8.68603142 10.52034581 -4.52938538 7.54897563 -1.3125 2.1875 C-0.879375 1.465625 -0.44625 0.74375 0 0 Z " fill="#615C5F" transform="translate(183,164)"/>
<path d="M0 0 C-1 3 -1 3 -4.16015625 4.82421875 C-5.45600869 5.45553148 -6.75706229 6.07625399 -8.0625 6.6875 C-8.72572266 7.00783203 -9.38894531 7.32816406 -10.07226562 7.65820312 C-11.71050858 8.4478598 -13.35471454 9.22512362 -15 10 C-13.95199219 9.7834375 -12.90398437 9.566875 -11.82421875 9.34375 C-10.44534373 9.06234693 -9.06643574 8.78110536 -7.6875 8.5 C-6.99720703 8.35691406 -6.30691406 8.21382812 -5.59570312 8.06640625 C-2.67475227 7.47374956 0.01108122 7 3 7 C2.67 7.99 2.34 8.98 2 10 C-4.65425699 11.14231412 -11.29221378 12.22602467 -18 13 C-18 13.66 -18 14.32 -18 15 C-19.65 15 -21.3 15 -23 15 C-22.6875 13.0625 -22.6875 13.0625 -22 11 C-21.01 10.67 -20.02 10.34 -19 10 C-19 9.34 -19 8.68 -19 8 C-18.09636719 7.59007813 -17.19273438 7.18015625 -16.26171875 6.7578125 C-15.08222656 6.21898438 -13.90273437 5.68015625 -12.6875 5.125 C-10.92986328 4.32449219 -10.92986328 4.32449219 -9.13671875 3.5078125 C-1.83937824 0 -1.83937824 0 0 0 Z " fill="#4E4A4C" transform="translate(142,86)"/>
<path d="M0 0 C0.99 0.33 1.98 0.66 3 1 C2.69964844 1.58265625 2.39929688 2.1653125 2.08984375 2.765625 C-3.66158653 14.55708779 -5.20428118 28.3442084 -5.69140625 41.3046875 C-6 44 -6 44 -8 46 C-8.91015999 29.72913983 -7.60321967 14.69409299 0 0 Z " fill="#5A5659" transform="translate(97,132)"/>
<path d="M0 0 C3.98671063 1.36687222 6.88494633 3.15195093 10 6 C10 6.66 10 7.32 10 8 C10.75796875 8.22042969 11.5159375 8.44085938 12.296875 8.66796875 C15.71358589 10.35163698 16.52407803 11.95603597 18.25 15.3125 C18.75015625 16.25738281 19.2503125 17.20226562 19.765625 18.17578125 C21.71388791 22.63335745 22.12466883 26.6842792 22.09765625 31.51953125 C22.09443359 32.54111328 22.09121094 33.56269531 22.08789062 34.61523438 C22.07951172 35.67033203 22.07113281 36.72542969 22.0625 37.8125 C22.05798828 38.88693359 22.05347656 39.96136719 22.04882812 41.06835938 C22.03707729 43.71229683 22.02064787 46.35611952 22 49 C21.67 49 21.34 49 21 49 C20.96261719 47.74445313 20.92523438 46.48890625 20.88671875 45.1953125 C20.42311639 32.41112626 19.8034343 21.06607827 11 11 C8.14455899 8.49067305 5.22738234 6.13990105 2.1953125 3.84765625 C1.47085938 3.23792969 0.74640625 2.62820312 0 2 C0 1.34 0 0.68 0 0 Z " fill="#444041" transform="translate(176,123)"/>
<path d="M0 0 C0.66 0.33 1.32 0.66 2 1 C2 1.66 2 2.32 2 3 C-1.46153846 6 -1.46153846 6 -4 6 C-4.33 7.32 -4.66 8.64 -5 10 C-5.66 9.67 -6.32 9.34 -7 9 C-9.46069589 8.84143487 -11.91194766 8.72295424 -14.375 8.625 C-22.49821878 8.21329154 -31.08685989 7.60876007 -38 3 C-28.96333446 3.72752816 -19.9886923 4.83834968 -11 6 C-11 5.01 -11 4.02 -11 3 C-10.01 3 -9.02 3 -8 3 C-8 3.66 -8 4.32 -8 5 C-6.68 5 -5.36 5 -4 5 C-4 4.34 -4 3.68 -4 3 C-2 1.375 -2 1.375 0 0 Z " fill="#555152" transform="translate(181,114)"/>
<path d="M0 0 C0.66 0 1.32 0 2 0 C2 0.66 2 1.32 2 2 C2.969375 1.979375 3.93875 1.95875 4.9375 1.9375 C8 2 8 2 9 3 C9.3125 5.375 9.3125 5.375 9 8 C7.4375 9.8125 7.4375 9.8125 5 11 C1.25 11.1875 1.25 11.1875 -2 11 C-2.25 3.375 -2.25 3.375 0 0 Z " fill="#E4E1E1" transform="translate(125,73)"/>
<path d="M0 0 C1.85625 0.4640625 1.85625 0.4640625 3.75 0.9375 C4.8225 1.288125 5.895 1.63875 7 2 C7.33 2.99 7.66 3.98 8 5 C3.40488962 4.44858675 -0.62418191 3.45860603 -5 2 C-7.32694964 1.62468554 -9.65976685 1.28082798 -12 1 C-11.34 2.32 -10.68 3.64 -10 5 C-10.99 4.67 -11.98 4.34 -13 4 C-13 3.34 -13 2.68 -13 2 C-13.66 2 -14.32 2 -15 2 C-15 1.34 -15 0.68 -15 0 C-15.99 -0.33 -16.98 -0.66 -18 -1 C-11.65246976 -2.58688256 -5.98375478 -2.76173298 0 0 Z " fill="#504C4C" transform="translate(189,47)"/>
<path d="M0 0 C6.6175664 2.20201251 10.68451345 7.08207407 14.1796875 12.99609375 C17.22811274 20.44296113 16.24448642 29.11304923 16 37 C15.67 37 15.34 37 15 37 C14.92523438 35.91203125 14.85046875 34.8240625 14.7734375 33.703125 C13.92075618 23.48144734 12.56126717 13.69500506 5.05078125 6.00390625 C3.41044897 4.61644467 1.71049655 3.29997738 0 2 C0 1.34 0 0.68 0 0 Z " fill="#484446" transform="translate(182,56)"/>
<path d="M0 0 C0 0.99 0 1.98 0 3 C-1.051875 3.31130859 -1.051875 3.31130859 -2.125 3.62890625 C-9.11153144 5.89763045 -13.86137228 8.75830525 -19 14 C-19.99 13.34 -20.98 12.68 -22 12 C-7.14893617 -2.38297872 -7.14893617 -2.38297872 0 0 Z " fill="#585456" transform="translate(147,50)"/>
<path d="M0 0 C4.62 0 9.24 0 14 0 C14.12375 1.381875 14.2475 2.76375 14.375 4.1875 C14.99963808 10.49724992 15.98973225 16.74222498 17 23 C15.35 22.67 13.7 22.34 12 22 C12.66 21.67 13.32 21.34 14 21 C12.68 14.73 11.36 8.46 10 2 C6.7 1.67 3.4 1.34 0 1 C0 0.67 0 0.34 0 0 Z " fill="#514D4E" transform="translate(147,211)"/>
<path d="M0 0 C0.38218767 1.65614657 0.71395102 3.32457024 1 5 C0.67 5.33 0.34 5.66 0 6 C-0.23192865 7.51469448 -0.41215238 9.03754562 -0.5625 10.5625 C-0.64628906 11.38878906 -0.73007813 12.21507812 -0.81640625 13.06640625 C-0.87699219 13.70449219 -0.93757812 14.34257813 -1 15 C-1.99 15 -2.98 15 -4 15 C-5.96093203 10.27069335 -6.24690188 6.98760752 -5 2 C-2 0 -2 0 0 0 Z " fill="#464145" transform="translate(157,48)"/>
<path d="M0 0 C2.97 0 5.94 0 9 0 C9 0.66 9 1.32 9 2 C7.576875 2.37125 7.576875 2.37125 6.125 2.75 C2.95023986 3.65433291 2.95023986 3.65433291 1.875 5.875 C1.58625 6.57625 1.2975 7.2775 1 8 C-0.29470975 9.37086915 -1.62150897 10.71340837 -3 12 C-3.94721072 9.39517051 -4.30222393 7.69325299 -3.17578125 5.109375 C-2.17063275 3.37417127 -1.0893855 1.68359577 0 0 Z " fill="#DEDBDC" transform="translate(160,47)"/>
<path d="M0 0 C0 0.66 0 1.32 0 2 C-0.88751953 2.22042969 -0.88751953 2.22042969 -1.79296875 2.4453125 C-7.51617007 4.06984273 -10.88382417 5.6440728 -14 11 C-14.66341231 14.33701382 -14.92612556 17.60177572 -15 21 C-15.33 21 -15.66 21 -16 21 C-17.59198543 11.27504554 -17.59198543 11.27504554 -15.375 6.5 C-10.71848211 1.59840223 -6.64595579 0 0 0 Z " fill="#524E4F" transform="translate(166,21)"/>
<path d="M0 0 C0.33 0 0.66 0 1 0 C1.33 4.29 1.66 8.58 2 13 C2.99 13 3.98 13 5 13 C5 12.34 5 11.68 5 11 C6.32 11 7.64 11 9 11 C8.67 12.32 8.34 13.64 8 15 C8 14.34 8 13.68 8 13 C5.93597032 13.48705712 5.93597032 13.48705712 4 15 C3.18129815 18.56206661 3.18129815 18.56206661 3 22 C1 19 1 19 1 16 C-0.32 15.67 -1.64 15.34 -3 15 C-2.01 14.67 -1.02 14.34 0 14 C0 9.38 0 4.76 0 0 Z " fill="#363234" transform="translate(149,35)"/>
<path d="M0 0 C-0.33 0.99 -0.66 1.98 -1 3 C-2.16015625 3.18175781 -2.16015625 3.18175781 -3.34375 3.3671875 C-10.47789001 4.51221336 -10.47789001 4.51221336 -17.5 6.1875 C-20.84120362 6.96313655 -21.89808515 6.95914472 -25 6 C-24.360625 5.87625 -23.72125 5.7525 -23.0625 5.625 C-22.381875 5.41875 -21.70125 5.2125 -21 5 C-20.67 4.34 -20.34 3.68 -20 3 C-18.39741845 2.72722016 -16.79097417 2.46908091 -15.17578125 2.28515625 C-11.82409181 1.84588636 -8.5391875 1.10538616 -5.234375 0.40234375 C-3 0 -3 0 0 0 Z " fill="#3A3539" transform="translate(145,93)"/>
<path d="M0 0 C4.10093847 0.57980868 7.69484826 1.53685497 11.5625 3 C18.00941053 5.23255622 24.21373558 5.78108824 31 6 C31 6.33 31 6.66 31 7 C10.27740189 7.69418133 10.27740189 7.69418133 1.875 1.8125 C1.25625 1.214375 0.6375 0.61625 0 0 Z " fill="#353132" transform="translate(130,204)"/>
<path d="M0 0 C0.66 0 1.32 0 2 0 C1.32485332 4.72602674 0.03751651 8.23769306 -3.6484375 11.42578125 C-8.42077465 15 -8.42077465 15 -12 15 C-10.88615391 11.65846174 -10.52117707 11.473264 -7.6875 9.75 C-3.71405392 7.0765085 -2.09089525 4.26542631 0 0 Z " fill="#474345" transform="translate(183,164)"/>
<path d="M0 0 C2 3 2 3 1.7578125 5.48046875 C1.54898438 6.37378906 1.34015625 7.26710938 1.125 8.1875 C0.92132813 9.08855469 0.71765625 9.98960938 0.5078125 10.91796875 C0.25644531 11.94857422 0.25644531 11.94857422 0 13 C1.65 13 3.3 13 5 13 C5 13.33 5 13.66 5 14 C4.030625 13.979375 3.06125 13.95875 2.0625 13.9375 C-0.87465895 13.64381501 -0.87465895 13.64381501 -2 15 C0.31 15 2.62 15 5 15 C5 15.33 5 15.66 5 16 C2.36 16 -0.28 16 -3 16 C-3.37952295 9.80112515 -2.8352113 5.5522888 0 0 Z " fill="#6A6869" transform="translate(123,71)"/>
<path d="M0 0 C0.33 0 0.66 0 1 0 C1.25618326 3.87370627 1.47512868 7.74866447 1.6875 11.625 C1.76033203 12.71941406 1.83316406 13.81382812 1.90820312 14.94140625 C2.213071 20.85942972 2.39715454 25.0221643 -1 30 C-2.35140557 27.29718886 -1.62649417 25.92652893 -1 23 C-0.85917098 21.16252459 -0.75560602 19.32192549 -0.68359375 17.48046875 C-0.64169922 16.45888672 -0.59980469 15.43730469 -0.55664062 14.38476562 C-0.51732422 13.32966797 -0.47800781 12.27457031 -0.4375 11.1875 C-0.39431641 10.11306641 -0.35113281 9.03863281 -0.30664062 7.93164062 C-0.20089017 5.28787918 -0.09879767 2.6440289 0 0 Z " fill="#5F5A5D" transform="translate(196,153)"/>
<path d="M0 0 C0.43570313 0.37511719 0.87140625 0.75023437 1.3203125 1.13671875 C1.91585937 1.64847656 2.51140625 2.16023437 3.125 2.6875 C4.07439453 3.50541016 4.07439453 3.50541016 5.04296875 4.33984375 C6.81640213 5.8442533 8.62132079 7.29792354 10.4375 8.75 C11.283125 9.4925 12.12875 10.235 13 11 C13 11.66 13 12.32 13 13 C8.12804142 11.52364892 4.39295745 8.74048409 1 5 C0.0625 2.125 0.0625 2.125 0 0 Z " fill="#4F4A4B" transform="translate(90,176)"/>
<path d="M0 0 C3.42856619 1.50982731 5.95678216 3.51713969 8.75 6 C9.54921875 6.70125 10.3484375 7.4025 11.171875 8.125 C13 10 13 10 13 12 C8.942959 11.46960703 7.05155434 9.42356448 4.25 6.5625 C3.45078125 5.75941406 2.6515625 4.95632812 1.828125 4.12890625 C0 2 0 2 0 0 Z " fill="#423E3F" transform="translate(168,238)"/>
<path d="M0 0 C0.99 0.33 1.98 0.66 3 1 C2.44570312 1.53109375 1.89140625 2.0621875 1.3203125 2.609375 C0.59585938 3.31578125 -0.12859375 4.0221875 -0.875 4.75 C-1.59429687 5.44609375 -2.31359375 6.1421875 -3.0546875 6.859375 C-4.86479679 8.85122217 -5.94848086 10.5427658 -7 13 C-7.99 13 -8.98 13 -10 13 C-8.56501627 9.79111679 -6.78256013 7.42193016 -4.4375 4.8125 C-3.81746094 4.11769531 -3.19742188 3.42289062 -2.55859375 2.70703125 C-1.72141231 1.79011824 -0.8779528 0.8779528 0 0 Z " fill="#4A4748" transform="translate(124,63)"/>
<path d="M0 0 C0.33 0 0.66 0 1 0 C1.1967332 2.8329581 1.38259641 5.66596323 1.5625 8.5 C1.61857422 9.29148437 1.67464844 10.08296875 1.73242188 10.8984375 C2.05189484 16.09519779 1.79686914 20.85281562 1 26 C0.67 26 0.34 26 0 26 C-1.42861738 17.26956048 -0.65454448 8.77089601 0 0 Z " fill="#615D5E" transform="translate(196,81)"/>
<path d="M0 0 C0.33 0.66 0.66 1.32 1 2 C0.01 2.495 0.01 2.495 -1 3 C0.32 3.66 1.64 4.32 3 5 C0.91952703 5.5321441 -1.16452293 6.05031786 -3.25 6.5625 C-4.41015625 6.85253906 -5.5703125 7.14257812 -6.765625 7.44140625 C-10 8 -10 8 -14 7 C-9.38 4.69 -4.76 2.38 0 0 Z " fill="#B6B2B5" transform="translate(139,89)"/>
<path d="M0 0 C0.33 0.66 0.66 1.32 1 2 C3.31 2 5.62 2 8 2 C8 2.33 8 2.66 8 3 C5.69 3 3.38 3 1 3 C0.34 5.31 -0.32 7.62 -1 10 C-1.66 9.34 -2.32 8.68 -3 8 C-3.99 8.66 -4.98 9.32 -6 10 C-4.79157144 5.56909529 -3.48331435 3.01887244 0 0 Z " fill="#C6C2C3" transform="translate(122,68)"/>
<path d="M0 0 C2.375 2.125 2.375 2.125 4 4 C4 4.66 4 5.32 4 6 C1 6 1 6 -1.5625 3.625 C-2.366875 2.75875 -3.17125 1.8925 -4 1 C-6.5654594 -1.5654594 -8.47686668 -1.54046087 -12 -2 C-12 -2.33 -12 -2.66 -12 -3 C-6.52773195 -4.56350516 -4.36643563 -3.512133 0 0 Z " fill="#575355" transform="translate(187,37)"/>
<path d="M0 0 C0.66 0.33 1.32 0.66 2 1 C0.78329471 3.7652393 -0.75429298 6.25053897 -2.4375 8.75 C-2.84871094 9.36359375 -3.25992188 9.9771875 -3.68359375 10.609375 C-4.11800781 11.06828125 -4.55242187 11.5271875 -5 12 C-5.99 12 -6.98 12 -8 12 C-6.63312778 8.01328937 -4.84804907 5.11505367 -2 2 C-1.34 2 -0.68 2 0 2 C0 1.34 0 0.68 0 0 Z " fill="#524D50" transform="translate(159,234)"/>
<path d="M0 0 C0 0.66 0 1.32 0 2 C-5.02125926 2.77916092 -8.97703996 3.13016601 -14 2 C-14 1.67 -14 1.34 -14 1 C-4.58997722 -2.81321185 -4.58997722 -2.81321185 0 0 Z " fill="#565255" transform="translate(133,170)"/>
<path d="M0 0 C0.33 0 0.66 0 1 0 C1.61016949 8.72881356 1.61016949 8.72881356 -0.5 13.125 C-4.1314309 15.84857317 -6.53542721 15.37204773 -11 15 C-11 14.67 -11 14.34 -11 14 C-10.05125 13.938125 -9.1025 13.87625 -8.125 13.8125 C-7.09375 13.544375 -6.0625 13.27625 -5 13 C-3.54708727 10.53744315 -3.54708727 10.53744315 -3 8 C-2.34 8.33 -1.68 8.66 -1 9 C-0.67 6.03 -0.34 3.06 0 0 Z " fill="#7D797A" transform="translate(173,75)"/>
<path d="M0 0 C2.6318445 2.40298846 3.89311748 4.21012001 4.11352539 7.90112305 C4.10828857 8.59761963 4.10305176 9.29411621 4.09765625 10.01171875 C4.09443359 10.76904297 4.09121094 11.52636719 4.08789062 12.30664062 C4.07951172 13.09232422 4.07113281 13.87800781 4.0625 14.6875 C4.05798828 15.48478516 4.05347656 16.28207031 4.04882812 17.10351562 C4.0370585 19.06904257 4.01912348 21.03453085 4 23 C3.67 23 3.34 23 3 23 C2.86722656 21.84242187 2.73445312 20.68484375 2.59765625 19.4921875 C2.41934918 17.95311592 2.24095938 16.41405393 2.0625 14.875 C1.97548828 14.11445312 1.88847656 13.35390625 1.79882812 12.5703125 C1.3084513 8.35670423 0.74097022 4.178805 0 0 Z " fill="#3B3739" transform="translate(194,70)"/>
<path d="M0 0 C0 0.99 0 1.98 0 3 C-4.455 4.485 -4.455 4.485 -9 6 C-9 4.68 -9 3.36 -9 2 C-3.375 -1.125 -3.375 -1.125 0 0 Z " fill="#797576" transform="translate(147,50)"/>
<path d="M0 0 C0.99 0.33 1.98 0.66 3 1 C0.36 4.3 -2.28 7.6 -5 11 C-5.33 9.68 -5.66 8.36 -6 7 C-4.78515625 5.078125 -4.78515625 5.078125 -3.0625 3.25 C-2.49660156 2.63640625 -1.93070312 2.0228125 -1.34765625 1.390625 C-0.90292969 0.93171875 -0.45820312 0.4728125 0 0 Z " fill="#4F4B4B" transform="translate(104,123)"/>
<path d="M0 0 C-1.21522435 3.64567304 -2.84583354 4.48567022 -6.14453125 6.28125 C-8.70649479 7.27367377 -10.45705775 6.92470627 -13 6 C-4 0 -4 0 0 0 Z " fill="#625E5F" transform="translate(142,86)"/>
<path d="M0 0 C0.66 0.33 1.32 0.66 2 1 C2 1.66 2 2.32 2 3 C-3.95822705 7.25587646 -10.03398858 5.85783227 -17 5 C-17 4.67 -17 4.34 -17 4 C-15.66195312 3.94392578 -15.66195312 3.94392578 -14.296875 3.88671875 C-13.12640625 3.82097656 -11.9559375 3.75523437 -10.75 3.6875 C-9.58984375 3.62949219 -8.4296875 3.57148438 -7.234375 3.51171875 C-3.89180362 2.98288197 -2.4502943 2.26227667 0 0 Z " fill="#626060" transform="translate(165,205)"/>
<path d="M0 0 C0 0.66 0 1.32 0 2 C3.3 1.67 6.6 1.34 10 1 C10.33 1.99 10.66 2.98 11 4 C8.54137599 4.05383848 6.0839245 4.09359038 3.625 4.125 C2.57699219 4.15013672 2.57699219 4.15013672 1.5078125 4.17578125 C-0.32897486 4.19344267 -2.16601963 4.10303261 -4 4 C-4.66 3.34 -5.32 2.68 -6 2 C-2.25 0 -2.25 0 0 0 Z " fill="#696567" transform="translate(135,115)"/>
<path d="M0 0 C0.66 0.33 1.32 0.66 2 1 C2 1.66 2 2.32 2 3 C-1.46153846 6 -1.46153846 6 -4 6 C-4.33 7.32 -4.66 8.64 -5 10 C-5.66 9.34 -6.32 8.68 -7 8 C-6.34 8 -5.68 8 -5 8 C-5 7.34 -5 6.68 -5 6 C-5.99 5.67 -6.98 5.34 -8 5 C-6.68 5 -5.36 5 -4 5 C-4 4.34 -4 3.68 -4 3 C-2 1.375 -2 1.375 0 0 Z " fill="#5A5659" transform="translate(181,114)"/>
<path d="M0 0 C2.24606427 1.77444972 2.95081002 2.58352485 3.29296875 5.48046875 C3.25816406 6.37378906 3.22335938 7.26710938 3.1875 8.1875 C3.16042969 9.08855469 3.13335937 9.98960938 3.10546875 10.91796875 C3.07066406 11.60503906 3.03585938 12.29210937 3 13 C2.01 13.495 2.01 13.495 1 14 C0.93941406 13.30132812 0.87882813 12.60265625 0.81640625 11.8828125 C0.73261719 10.97273438 0.64882812 10.06265625 0.5625 9.125 C0.48128906 8.22007813 0.40007812 7.31515625 0.31640625 6.3828125 C0.13010715 3.98889139 0.13010715 3.98889139 -1 2 C-0.67 1.34 -0.34 0.68 0 0 Z " fill="#514D4F" transform="translate(170,71)"/>
<path d="M0 0 C0.94875 0.350625 1.8975 0.70125 2.875 1.0625 C2.545 1.7225 2.215 2.3825 1.875 3.0625 C-1.095 2.5675 -1.095 2.5675 -4.125 2.0625 C-4.125 5.0325 -4.125 8.0025 -4.125 11.0625 C-4.455 11.0625 -4.785 11.0625 -5.125 11.0625 C-5.125 7.4325 -5.125 3.8025 -5.125 0.0625 C-3.125 -0.9375 -3.125 -0.9375 0 0 Z " fill="#726F70" transform="translate(128.125,201.9375)"/>
<path d="M0 0 C0.66 0.33 1.32 0.66 2 1 C0.35 2.98 -1.3 4.96 -3 7 C-2.67 7.66 -2.34 8.32 -2 9 C-3.32 8.34 -4.64 7.68 -6 7 C-6 6.01 -6 5.02 -6 4 C-3 1.8125 -3 1.8125 0 0 Z " fill="#C6C3C4" transform="translate(183,116)"/>
<path d="M0 0 C-1.3715803 2.95417295 -2.86820178 5.52711406 -5 8 C-5.99 8.33 -6.98 8.66 -8 9 C-6.68994234 5.06982701 -4.75047804 0 0 0 Z " fill="#CAC6C7" transform="translate(159,25)"/>
<path d="M0 0 C4.62 0 9.24 0 14 0 C13.34 1.98 12.68 3.96 12 6 C11.77570313 5.35546875 11.55140625 4.7109375 11.3203125 4.046875 C10.17110544 1.75611148 10.17110544 1.75611148 7.6171875 1.390625 C6.25980469 1.32101563 6.25980469 1.32101563 4.875 1.25 C3.96492187 1.19328125 3.05484375 1.1365625 2.1171875 1.078125 C1.41851562 1.05234375 0.71984375 1.0265625 0 1 C0 0.67 0 0.34 0 0 Z " fill="#726E6F" transform="translate(147,211)"/>
<path d="M0 0 C0.99 0 1.98 0 3 0 C3 0.99 3 1.98 3 3 C3.99 3 4.98 3 6 3 C6 3.66 6 4.32 6 5 C2.37 5 -1.26 5 -5 5 C-5 4.67 -5 4.34 -5 4 C-3.02 4 -1.04 4 1 4 C0.67 2.68 0.34 1.36 0 0 Z " fill="#3F3B3F" transform="translate(170,117)"/>
<path d="M0 0 C3.96 0.33 7.92 0.66 12 1 C12 1.33 12 1.66 12 2 C10.02 2 8.04 2 6 2 C6.66 3.32 7.32 4.64 8 6 C7.01 5.67 6.02 5.34 5 5 C5 4.34 5 3.68 5 3 C4.34 3 3.68 3 3 3 C3 2.34 3 1.68 3 1 C2.01 0.67 1.02 0.34 0 0 Z " fill="#848080" transform="translate(171,46)"/>
<path d="M0 0 C1.33917261 0.30903983 2.67088318 0.65023242 4 1 C6.33094534 1.3496418 8.66404762 1.68554487 11 2 C11 2.33 11 2.66 11 3 C9.72125 3.12375 8.4425 3.2475 7.125 3.375 C3.65209064 3.69042399 3.65209064 3.69042399 1 6 C1 4.68 1 3.36 1 2 C0.34 1.67 -0.32 1.34 -1 1 C-0.67 0.67 -0.34 0.34 0 0 Z " fill="#656163" transform="translate(157,44)"/>
<path d="M0 0 C0.66 0 1.32 0 2 0 C1.67 1.65 1.34 3.3 1 5 C-0.98 5.66 -2.96 6.32 -5 7 C-3.47793991 4.37098712 -2.15634036 2.15634036 0 0 Z " fill="#D3CFD1" transform="translate(160,237)"/>
<path d="M0 0 C0.66 0.33 1.32 0.66 2 1 C0.92643323 2.15498897 -0.15929788 3.29867867 -1.25 4.4375 C-1.85328125 5.07558594 -2.4565625 5.71367188 -3.078125 6.37109375 C-5.10048016 8.08516306 -6.41270605 8.59358878 -9 9 C-6 6 -3 3 0 0 Z " fill="#CCCBCB" transform="translate(132,59)"/>
<path d="M0 0 C-0.56371414 3.26954202 -1.49962266 4.82575883 -4 7 C-4.33 5.35 -4.66 3.7 -5 2 C-2 0 -2 0 0 0 Z " fill="#D3CFD1" transform="translate(161,52)"/>
<path d="M0 0 C1.32 0 2.64 0 4 0 C4 0.66 4 1.32 4 2 C0.09971775 4.60018816 -3.47434569 4.15085514 -8 4 C-8 3.67 -8 3.34 -8 3 C-6.865625 2.690625 -5.73125 2.38125 -4.5625 2.0625 C-1.21224901 1.37075469 -1.21224901 1.37075469 0 0 Z " fill="#4B4747" transform="translate(179,182)"/>
<path d="M0 0 C0.33 0 0.66 0 1 0 C1.25 2.25 1.25 2.25 1 5 C-0.875 7.3125 -0.875 7.3125 -3 9 C-3.66 9 -4.32 9 -5 9 C-4 7 -3 5 -2 3 C-1.34 3 -0.68 3 0 3 C0 2.01 0 1.02 0 0 Z " fill="#3E3A3A" transform="translate(195,102)"/>
<path d="M0 0 C7.42857143 -0.28571429 7.42857143 -0.28571429 11 2 C11 2.66 11 3.32 11 4 C9.35 4 7.7 4 6 4 C5.67 3.34 5.34 2.68 5 2 C2.47266765 1.34444881 2.47266765 1.34444881 0 1 C0 0.67 0 0.34 0 0 Z " fill="#363134" transform="translate(163,45)"/>
<path d="M0 0 C3.55780196 0.60990891 6.6828589 1.5783681 10 3 C10 3.33 10 3.66 10 4 C7.69 4 5.38 4 3 4 C3 3.34 3 2.68 3 2 C2.01 1.67 1.02 1.34 0 1 C0 0.67 0 0.34 0 0 Z " fill="#3B363B" transform="translate(132,113)"/>
<path d="M0 0 C-0.33 0.99 -0.66 1.98 -1 3 C-3.31 3 -5.62 3 -8 3 C-8.33 2.34 -8.66 1.68 -9 1 C-5.94152152 0.45627049 -3.11227195 0 0 0 Z " fill="#5D5959" transform="translate(145,93)"/>
<path d="M0 0 C0 0.66 0 1.32 0 2 C-2.52475462 3.26237731 -4.31200466 3.09856404 -7.125 3.0625 C-8.03507812 3.05347656 -8.94515625 3.04445313 -9.8828125 3.03515625 C-10.58148438 3.02355469 -11.28015625 3.01195313 -12 3 C-11.67 2.34 -11.34 1.68 -11 1 C-10.05125 1.020625 -9.1025 1.04125 -8.125 1.0625 C-4.96309465 0.99926189 -3.14866406 0 0 0 Z " fill="#423F40" transform="translate(133,83)"/>
<path d="M0 0 C1.65 0.33 3.3 0.66 5 1 C5.33 1.99 5.66 2.98 6 4 C3.69 3.67 1.38 3.34 -1 3 C-0.67 2.01 -0.34 1.02 0 0 Z " fill="#858181" transform="translate(191,48)"/>
<path d="M0 0 C0.99 0 1.98 0 3 0 C2.34 2.64 1.68 5.28 1 8 C-0.42944945 5.64561267 -1.08661261 4.51967567 -0.625 1.75 C-0.41875 1.1725 -0.2125 0.595 0 0 Z " fill="#C0BBBE" transform="translate(153,49)"/>
<path d="M0 0 C-0.33 0.99 -0.66 1.98 -1 3 C-0.01 3.33 0.98 3.66 2 4 C-1.34373475 3.44271087 -4.03312999 2.64826111 -7 1 C-3.375 -1.125 -3.375 -1.125 0 0 Z " fill="#DCD8D7" transform="translate(191,44)"/>
<path d="M0 0 C-2.8125 1.5625 -2.8125 1.5625 -6 3 C-6.99 2.67 -7.98 2.34 -9 2 C-8 0 -8 0 -6.1875 -0.6875 C-3.81180233 -1.02688538 -2.26664171 -0.72856341 0 0 Z " fill="#4A4547" transform="translate(175,204)"/>
<path d="M0 0 C3.35595828 0.59927826 5.37801226 1.84622436 8 4 C5.03 3.67 2.06 3.34 -1 3 C-0.67 2.01 -0.34 1.02 0 0 Z " fill="#656162" transform="translate(185,46)"/>
<path d="M0 0 C1.98 0 3.96 0 6 0 C4.69593116 2.01920337 3.36176581 4.01924973 2 6 C1.67 6 1.34 6 1 6 C0.67 4.02 0.34 2.04 0 0 Z " fill="#C5C1C3" transform="translate(114,215)"/>
<path d="M0 0 C0.66 0 1.32 0 2 0 C1.25 4.75 1.25 4.75 -1 7 C-1.66 6.34 -2.32 5.68 -3 5 C-1.625 2.5 -1.625 2.5 0 0 Z " fill="#575354" transform="translate(183,164)"/>
<path d="M0 0 C0.99 0.33 1.98 0.66 3 1 C2.67 3.64 2.34 6.28 2 9 C1.67 9 1.34 9 1 9 C0.67 6.03 0.34 3.06 0 0 Z " fill="#787474" transform="translate(91,148)"/>
</svg>
